<svg xmlns="http://www.w3.org/2000/svg" width="52" height="40" fill="none"><path fill="#5C0202" d="M15.785 36.745c-4.512 4.578-12.154 4.56-14.288-1.542a26.739 26.739 0 0 1 .482-18.918c1.968-4.82 5.3-8.94 9.576-11.84A25.734 25.734 0 0 1 26 0c5.142 0 10.17 1.547 14.445 4.446a26.3 26.3 0 0 1 9.576 11.839 26.739 26.739 0 0 1 .482 18.918c-2.134 6.101-9.776 6.12-14.288 1.542l-6.965-7.067c-.665-.675-.597-1.789-.413-2.725.111-.57.054-1.16-.165-1.696a2.926 2.926 0 0 0-1.065-1.317 2.864 2.864 0 0 0-3.214 0c-.476.322-.846.78-1.065 1.317a2.973 2.973 0 0 0-.165 1.696c.184.936.252 2.05-.413 2.725l-6.965 7.067Z"/></svg>